<svg enable-background="new 0 0 565.5 136.5" version="1.1" viewBox="0 0 565.5 136.5" xml:space="preserve" xmlns="http://www.w3.org/2000/svg">
<style type="text/css">
	.logo-mark{fill:#6FCBD9;}
	.wordmark{fill:#C2E6EF;}
</style>
<path class="logo-mark" d="m112.7 128.7h-104.3v-122.6h104.2v122.6zm-100.3-4h96.4v-114.6h-96.4v114.6zm31.2-51.1v36.3l6.1 6.1c0.4 0.4 0.5 1 0.3 1.6s-0.7 0.9-1.3 0.9h-29.2c-0.6 0-1-0.3-1.3-0.9-0.2-0.6-0.1-1.1 0.3-1.6l6.1-6.1v-85.1l-6.1-6.1c-0.4-0.5-0.5-1-0.3-1.6s0.7-0.9 1.3-0.9h29.1c0.6 0 1 0.3 1.3 0.9 0.2 0.6 0.1 1.1-0.3 1.6l-6.1 6.1v36.3l0.1 12.5zm53 0v36.3l6.1 6.1c0.4 0.4 0.5 1 0.3 1.6s-0.7 0.9-1.3 0.9h-29.2c-0.6 0-1-0.3-1.3-0.9-0.2-0.6-0.1-1.1 0.3-1.6l6.1-6.1v-85.1l-6.1-6.1c-0.4-0.5-0.5-1-0.3-1.6s0.7-0.9 1.3-0.9h29.1c0.6 0 1 0.3 1.3 0.9 0.2 0.6 0.1 1.1-0.3 1.6l-6.1 6.1v36.3l0.1 12.5zm-30.8-11.5v10.6h-10.6v-10.6h10.6z"/>
<path class="wordmark" d="m150 63.7h-0.7c-0.6 0-1.1-0.2-1.6-0.7-0.4-0.4-0.7-0.9-0.7-1.6v-20.8c0-0.6 0.2-1.1 0.7-1.5 0.4-0.4 0.9-0.6 1.6-0.6h0.7v-0.7h-8.6v0.7h0.7c0.6 0 1.1 0.2 1.6 0.6 0.4 0.4 0.7 0.9 0.7 1.5v20.9c0 0.6-0.2 1.1-0.7 1.6-0.4 0.4-0.9 0.7-1.6 0.7h-0.7v0.7h8.6v-0.8zm7-0.6c-0.4 0.4-0.9 0.6-1.5 0.6h-0.9v0.7h8.1v-0.7h-0.9c-0.4 0-0.7-0.1-1.1-0.3-0.7-0.4-1.1-1-1.1-1.8v-18.3l20.2 21.6v0.1h0.6l-0.1-0.9c-0.2-1.3-0.3-2.7-0.3-4.1v-19.5c0-0.6 0.2-1.1 0.7-1.5 0.4-0.4 0.9-0.6 1.5-0.6h0.8v-0.7h-8.1v0.7h0.9c0.6 0 1.1 0.2 1.5 0.6s0.6 0.9 0.7 1.5v18.3l-20.2-21.6v-0.1h-0.6l0.1 0.8c0.2 1.2 0.3 2.6 0.3 4.1v19.5c0 0.7-0.2 1.2-0.6 1.6zm36.5-24.7h0.5v-0.7h-8.8v0.7h0.5c0.6 0 1.2 0.2 1.8 0.6s1.1 1 1.4 1.7l10.6 24.1v0.1h0.6v-0.2c0-0.5 0.5-1.8 1.4-3.8l9.1-20.3c0.2-0.5 0.5-0.9 0.9-1.3 0.7-0.6 1.4-1 2.2-1h0.5v-0.7h-7.9v0.7h0.5c0.5 0 0.8 0.1 1.1 0.4 0.2 0.3 0.4 0.6 0.4 0.8 0 0.3 0 0.5-0.1 0.8l-8.2 19.6-7.7-19.4c-0.1-0.3-0.2-0.5-0.2-0.7s0-0.3 0.1-0.5c0.2-0.6 0.7-0.9 1.3-0.9zm39.1 3.7v-5.1l-0.2 0.1c-0.4 0.1-1 0.3-1.9 0.4s-1.8 0.2-2.5 0.2h-11.2l0.1 0.7h0.6c0.6 0 1.1 0.2 1.5 0.6s0.7 0.9 0.7 1.4v21.1c0 0.6-0.2 1.1-0.7 1.6-0.4 0.4-0.9 0.7-1.6 0.7h-0.7v0.7h15.9l2.2-6.2 0.1-0.2h-0.7v0.1c-0.6 1.6-1.4 2.8-2.4 3.6-0.9 0.8-2.3 1.2-4.2 1.2h-5.2v-11h6.2c0.5 0 0.8 0.2 1.2 0.5 0.3 0.3 0.5 0.7 0.5 1.2v0.7h0.7v-6.3h-0.7v0.7c0 0.5-0.2 0.9-0.5 1.2s-0.7 0.5-1.2 0.5h-6.2v-11.3h7.5c0.5 0 1 0.2 1.4 0.6s0.6 0.9 0.6 1.4v0.8l0.7 0.1zm8.1 15.2h-0.7v0.1c-0.4 1.1-0.6 2.2-0.6 3.3 0 1 0 1.7 0.1 2.1 0.7 0.7 1.7 1.3 3 1.6 1.2 0.3 2.4 0.5 3.6 0.5 2.2 0 3.9-0.7 5.2-2s2-3 2-5.1c0-2-0.7-3.7-1.9-4.9l-7.4-6.9c-1-0.9-1.5-2-1.5-3.2s0.4-2.3 1.3-3.1c0.8-0.8 1.9-1.2 3.1-1.2s2.3 0.3 3 1c0.8 0.7 1.2 1.6 1.2 2.7v0.2h0.7v-5h-1.6c-1.2-0.3-2.3-0.4-3.3-0.4-2.1 0-3.7 0.7-5 2-1.2 1.3-1.8 2.9-1.8 4.7s0.7 3.4 2.1 4.7l7.2 6.7c0.9 0.9 1.4 2 1.4 3.4s-0.5 2.6-1.5 3.5-2.3 1.4-3.8 1.4-2.7-0.5-3.6-1.5-1.4-2.2-1.4-3.7v-0.8l0.2-0.1zm25.2 5.8c-0.4 0.4-0.9 0.6-1.6 0.6h-0.7v0.7h8.6v-0.7h-0.7c-0.6 0-1.1-0.2-1.6-0.6-0.4-0.4-0.7-0.9-0.7-1.5v-22.5h7c0.5 0 1 0.2 1.4 0.6s0.6 0.9 0.6 1.5v0.8l0.7 0.1v-5.2l-0.2 0.1c-0.2 0.1-0.7 0.2-1.5 0.4s-1.8 0.3-3 0.3h-12.7c-0.8 0-1.6-0.1-2.5-0.2-0.9-0.2-1.6-0.3-1.9-0.4l-0.2-0.1v5.2l0.7-0.1v-0.8c0-0.6 0.2-1 0.6-1.5 0.4-0.4 0.9-0.6 1.4-0.6h7v22.4c-0.1 0.6-0.3 1.1-0.7 1.5zm29.1 1.8c4 0 7.4-1.3 9.9-3.8s3.8-5.9 3.8-10-1.3-7.5-3.8-10-5.9-3.8-9.9-3.8-7.4 1.3-9.9 3.8-3.8 5.9-3.8 10 1.3 7.5 3.8 10c2.6 2.5 5.9 3.8 9.9 3.8zm-7.5-22.8c1.9-2.3 4.5-3.4 7.6-3.4 2.1 0 3.9 0.5 5.5 1.5s2.8 2.5 3.7 4.4 1.3 4.1 1.3 6.5c0 3.7-1 6.7-2.9 9s-4.5 3.4-7.6 3.4-5.7-1.1-7.6-3.4-2.9-5.3-2.9-9 1-6.8 2.9-9zm26.2 21c-0.4 0.4-1 0.6-1.6 0.6h-0.7v0.7h8.6l-0.1-0.7h-0.6c-0.6 0-1.2-0.2-1.6-0.7-0.4-0.4-0.6-0.9-0.6-1.6v-22.2h2.2 2.3c1.4 0.1 2.4 0.6 3.2 1.6s1.2 2.3 1.3 4v0.8c0 0.4-0.1 0.9-0.2 1.4-0.8 2.4-2.7 3.7-5.7 3.8-0.9 0.1-1.6 0.1-2 0h-0.2v0.7h0.2c0.8 0 1.5 0.4 2.3 1.2 0.3 0.3 0.5 0.6 0.8 0.9s1.1 1.6 2.7 3.8c1.5 2.2 2.8 4 3.2 4.5 0.3 0.4 0.7 0.8 1.2 1.2s1.2 0.8 2.1 1.2 2 0.6 3.1 0.6h2.2v-0.7h-0.2c-0.8 0-1.6-0.2-2.3-0.5-0.3-0.1-0.6-0.3-0.9-0.6-0.3-0.2-0.6-0.5-0.9-0.8s-0.7-0.8-1.4-1.5c-0.6-0.7-2.4-3.1-4.6-6.3-0.4-0.5-0.9-1.1-1.4-1.6-0.3-0.3-0.6-0.6-0.9-0.8 1.6-0.1 3-0.9 4.1-2.2 1.3-1.5 1.9-3.3 1.9-5.3 0-2.1-0.7-3.8-2-5-1.3-1.3-3.2-1.9-5.5-1.9h-10.3v0.7h0.7c0.6 0 1.1 0.2 1.6 0.6 0.4 0.4 0.7 1 0.7 1.6v20.9c0 0.6-0.3 1.1-0.7 1.6zm110.1 0c-0.4 0.4-1 0.6-1.6 0.6h-0.7v0.7h8.6l-0.1-0.7h-0.6c-0.6 0-1.2-0.2-1.6-0.7-0.4-0.4-0.6-0.9-0.6-1.6v-22.2h2.2 2.3c1.4 0.1 2.4 0.6 3.2 1.6s1.2 2.3 1.3 4v0.8c0 0.4-0.1 0.9-0.2 1.4-0.8 2.4-2.7 3.7-5.7 3.8-0.9 0.1-1.6 0.1-2 0h-0.2v0.7h0.2c0.8 0 1.5 0.4 2.3 1.2 0.3 0.3 0.5 0.6 0.8 0.9s1.1 1.6 2.7 3.8c1.5 2.2 2.8 4 3.2 4.5 0.3 0.4 0.7 0.8 1.2 1.2s1.2 0.8 2.1 1.2 2 0.6 3.1 0.6h2.2v-0.7h-0.2c-0.8 0-1.6-0.2-2.3-0.5-0.3-0.1-0.6-0.3-0.9-0.6-0.3-0.2-0.6-0.5-0.9-0.8s-0.7-0.8-1.4-1.5c-0.6-0.7-2.4-3.1-4.6-6.3-0.4-0.5-0.9-1.1-1.4-1.6-0.3-0.3-0.6-0.6-0.9-0.8 1.6-0.1 3-0.9 4.1-2.2 1.3-1.5 1.9-3.3 1.9-5.3 0-2.1-0.7-3.8-2-5-1.3-1.3-3.2-1.9-5.5-1.9h-10.3v0.7h0.7c0.6 0 1.1 0.2 1.6 0.6 0.4 0.4 0.7 1 0.7 1.6v20.9c-0.1 0.6-0.3 1.1-0.7 1.6zm-85.4-5.8h-0.6v0.1c-0.4 1.1-0.6 2.2-0.6 3.3 0 1 0 1.7 0.1 2.1 0.7 0.7 1.7 1.3 3 1.6 1.2 0.3 2.4 0.5 3.6 0.5 2.2 0 3.9-0.7 5.2-2s2-3 2-5.1c0-2-0.7-3.7-1.9-4.9l-7.4-6.9c-1-0.9-1.5-2-1.5-3.2s0.4-2.3 1.3-3.1c0.8-0.8 1.9-1.2 3.1-1.2s2.3 0.3 3 1c0.8 0.7 1.2 1.6 1.2 2.7v0.2h0.7v-5h-1.6c-1.2-0.3-2.3-0.4-3.3-0.4-2.1 0-3.7 0.7-5 2-1.2 1.3-1.8 2.9-1.8 4.7s0.7 3.4 2.1 4.7l7.2 6.7c0.9 0.9 1.4 2 1.4 3.4s-0.5 2.6-1.5 3.5-2.3 1.4-3.8 1.4-2.7-0.5-3.6-1.5-1.4-2.2-1.4-3.7c0-0.3 0-0.5 0.1-0.9zm37.3 5.8c-0.4-0.4-0.7-0.9-0.7-1.6v-9.6h15.1v9.6c0 0.6-0.2 1.1-0.7 1.5-0.4 0.4-1 0.6-1.6 0.6h-0.7v0.7h8.6v-0.7h-0.7c-0.6 0-1.1-0.2-1.6-0.7-0.4-0.4-0.7-1-0.7-1.6v-20.7c0-0.6 0.2-1.1 0.7-1.6 0.4-0.4 0.9-0.6 1.6-0.6h0.7v-0.7h-8.6v0.7h0.7c0.4 0 0.8 0.1 1.1 0.3 0.7 0.4 1.1 1 1.1 1.9v9.9h-15v-9.9c0-0.6 0.2-1.1 0.7-1.5 0.4-0.4 0.9-0.6 1.6-0.6h0.7v-0.7h-8.6v0.7h0.7c0.6 0 1.1 0.2 1.6 0.6 0.4 0.4 0.7 0.9 0.7 1.5v20.9c0 0.6-0.2 1.1-0.7 1.6-0.4 0.4-0.9 0.7-1.6 0.7h-0.7v0.7h8.6v-0.7h-0.7c-0.6-0.1-1.2-0.3-1.6-0.7zm40.5-21v-5.1l-0.2 0.1c-0.4 0.1-1 0.3-1.9 0.4s-1.8 0.2-2.5 0.2h-11.2l0.1 0.7h0.6c0.6 0 1.1 0.2 1.5 0.6s0.7 0.9 0.7 1.4v21.1c0 0.6-0.2 1.1-0.7 1.6-0.4 0.4-0.9 0.7-1.6 0.7h-0.7v0.7h15.9l2.2-6.2 0.1-0.2h-0.7v0.1c-0.6 1.6-1.4 2.8-2.4 3.6-0.9 0.8-2.3 1.2-4.2 1.2h-5.2v-11h6.2c0.5 0 0.8 0.2 1.2 0.5 0.3 0.3 0.5 0.7 0.5 1.2v0.7h0.7v-6.3h-0.7v0.7c0 0.5-0.2 0.9-0.5 1.2s-0.7 0.5-1.2 0.5h-6.2v-11.3h7.5c0.5 0 1 0.2 1.4 0.6s0.6 0.9 0.6 1.4v0.8l0.7 0.1zm34.1 21c-0.4 0.4-0.9 0.7-1.6 0.7h-0.7v0.7h8.6v-0.7h-0.6c-0.6 0-1.1-0.2-1.6-0.7-0.4-0.4-0.7-0.9-0.7-1.6v-20.9c0-0.6 0.2-1.1 0.7-1.5 0.4-0.4 0.9-0.6 1.6-0.6h0.7v-0.7h-8.6v0.7h0.7c0.6 0 1.1 0.2 1.6 0.6 0.4 0.4 0.7 0.9 0.7 1.5v20.9c-0.2 0.6-0.4 1.1-0.8 1.6zm30.5-25.7c-0.8 0.2-1.8 0.3-3 0.3h-12.8c-0.8 0-1.6-0.1-2.5-0.2-0.9-0.2-1.6-0.3-1.9-0.4l-0.2-0.1v5.2l0.6-0.2v-0.8c0-0.6 0.2-1 0.6-1.5 0.4-0.4 0.9-0.6 1.4-0.6h7v22.4c0 0.6-0.2 1.1-0.7 1.5-0.4 0.4-0.9 0.6-1.6 0.6h-0.7v0.7h8.6v-0.7h-0.6c-0.6 0-1.1-0.2-1.6-0.6-0.4-0.4-0.7-0.9-0.7-1.5v-22.4h7c0.5 0 1 0.2 1.4 0.6s0.6 0.9 0.6 1.5v0.8l0.7 0.1v-5.2l-0.2 0.1c-0.1 0.1-0.6 0.2-1.4 0.4zm19.7 26.3h-0.5v0.7h8.8v-0.7h-0.5c-0.6 0-1.2-0.2-1.8-0.6s-1-1-1.4-1.7l-10.1-24.1v-0.1h-0.6v0.2c0 0.5-0.5 1.8-1.4 3.8l-8.5 20.3c-0.4 0.8-0.8 1.3-1.4 1.7s-1.2 0.6-1.8 0.6h-0.5v0.7h7.9v-0.7h-0.5c-0.5 0-0.8-0.1-1.1-0.4-0.2-0.3-0.4-0.6-0.4-0.8 0-0.3 0-0.6 0.1-0.8l2.5-6.3h9.9l2.4 6.3c0.1 0.3 0.1 0.6 0.1 0.9s-0.1 0.6-0.4 0.9c0 0-0.3 0.1-0.8 0.1zm-10.4-9.9l4.5-11.5 4.3 11.5h-8.8zm32.4-15.2c2.4 0 4.5 0.6 6.1 1.7s2.7 2.8 3.3 4.9v0.1h0.6l-0.8-5.6h-0.1c-2.7-1.7-5.8-2.6-9.2-2.6-4 0-7.4 1.3-9.9 3.8s-3.8 5.9-3.8 10 1.3 7.5 3.8 10 5.8 3.8 9.9 3.9c1.8 0 3.5-0.3 5-0.8s2.8-1.1 3.7-1.8 1.7-1.5 2.4-2.3v-6.3c0-0.5 0.1-0.9 0.4-1.1 0.3-0.3 0.7-0.4 1.3-0.4h0.7v-0.7h-7.7v0.7h0.8c0.6 0 1 0.1 1.3 0.4s0.5 0.6 0.5 1.1v6.6c-1.1 1-2.3 1.8-3.8 2.3-1.4 0.6-3 0.9-4.6 0.9-3.1 0-5.7-1.2-7.6-3.4-1.9-2.3-2.9-5.3-2.9-9s1-6.7 2.9-9c2.1-2.2 4.6-3.4 7.7-3.4zm31.6 3.5v-5.1l-0.2 0.1c-0.4 0.1-1 0.3-1.9 0.4s-1.8 0.2-2.5 0.2h-11.2l0.1 0.7h0.6c0.6 0 1.1 0.2 1.5 0.6s0.7 0.9 0.7 1.4v21.1c0 0.6-0.2 1.1-0.7 1.6-0.4 0.4-0.9 0.7-1.6 0.7h-0.7v0.7h15.9l2.2-6.2 0.1-0.2h-0.7v0.1c-0.6 1.6-1.4 2.8-2.4 3.6-0.9 0.8-2.3 1.2-4.2 1.2h-5.2v-11h6.2c0.5 0 0.8 0.2 1.2 0.5 0.3 0.3 0.5 0.7 0.5 1.2v0.7h0.7v-6.3h-0.7v0.7c0 0.5-0.2 0.9-0.5 1.2s-0.7 0.5-1.2 0.5h-6.2v-11.3h7.5c0.5 0 1 0.2 1.4 0.6s0.6 0.9 0.6 1.4v0.8l0.7 0.1zm-408.1 48.7l-4.8-7.3h2.2l3.5 5.6 3.6-5.6h2.1l-4.8 7.3v5.4h-1.8v-5.4zm5.8 1.1c0-0.6 0.1-1.2 0.3-1.7s0.6-1 1-1.4 0.9-0.7 1.4-1c0.5-0.2 1.1-0.3 1.8-0.3 0.6 0 1.2 0.1 1.8 0.3s1 0.6 1.4 1 0.7 0.9 1 1.4c0.2 0.5 0.3 1.1 0.3 1.7s-0.1 1.2-0.3 1.7-0.6 1-1 1.4-0.9 0.7-1.4 1-1.1 0.3-1.8 0.3c-0.6 0-1.2-0.1-1.8-0.3s-1-0.6-1.4-1-0.7-0.9-1-1.4c-0.2-0.4-0.3-1-0.3-1.7zm1.7 0c0 0.4 0.1 0.8 0.2 1.2s0.3 0.7 0.6 0.9c0.2 0.3 0.5 0.5 0.9 0.6 0.3 0.1 0.7 0.2 1.2 0.2 0.4 0 0.8-0.1 1.2-0.2 0.3-0.1 0.6-0.4 0.9-0.6l0.6-0.9c0.1-0.4 0.2-0.8 0.2-1.2s-0.1-0.8-0.2-1.2-0.3-0.7-0.6-0.9c-0.2-0.3-0.5-0.5-0.9-0.6-0.3-0.1-0.7-0.2-1.2-0.2-0.4 0-0.8 0.1-1.2 0.2-0.3 0.1-0.6 0.4-0.9 0.6l-0.6 0.9c-0.1 0.4-0.2 0.8-0.2 1.2zm17.5 4.3h-1.6v-1.3c-0.2 0.5-0.6 0.8-1.1 1.1s-1.1 0.4-1.7 0.4c-0.4 0-0.8-0.1-1.2-0.2s-0.7-0.3-1-0.6-0.5-0.6-0.7-1-0.3-0.9-0.3-1.5v-5.5h1.6v5c0 0.4 0.1 0.7 0.2 1s0.3 0.5 0.4 0.7c0.2 0.2 0.4 0.3 0.6 0.4s0.5 0.1 0.7 0.1c0.3 0 0.6-0.1 0.9-0.2s0.5-0.3 0.8-0.5 0.4-0.5 0.5-0.9 0.2-0.8 0.2-1.3v-4.4h1.6v8.7h0.1zm3-8.5h1.6v1.3c0.1-0.2 0.3-0.4 0.4-0.6 0.2-0.2 0.4-0.3 0.6-0.5 0.2-0.1 0.5-0.2 0.7-0.3 0.3-0.1 0.5-0.1 0.8-0.1s0.5 0 0.7 0.1l-0.1 1.7c-0.1 0-0.3-0.1-0.4-0.1h-0.4c-0.8 0-1.4 0.2-1.8 0.7-0.4 0.4-0.6 1.1-0.6 2.1v4.3h-1.5v-8.6zm13.3-4.2h1.7v11.1h5.8v1.6h-7.6v-12.7h0.1zm10.7 9c0 0.4 0.1 0.7 0.2 1s0.4 0.6 0.6 0.8c0.3 0.2 0.6 0.4 0.9 0.5s0.7 0.2 1.1 0.2c0.5 0 0.9-0.1 1.3-0.3s0.7-0.5 1-0.9l1.2 0.9c-0.9 1.2-2.2 1.7-3.8 1.7-0.7 0-1.3-0.1-1.8-0.3s-1-0.5-1.4-0.9-0.7-0.9-0.9-1.4-0.3-1.1-0.3-1.8c0-0.6 0.1-1.2 0.3-1.8 0.2-0.5 0.5-1 0.9-1.4s0.9-0.7 1.4-0.9 1.1-0.3 1.8-0.3c0.8 0 1.4 0.1 1.9 0.4s0.9 0.6 1.3 1c0.3 0.4 0.6 0.9 0.7 1.4s0.2 1.1 0.2 1.6v0.6l-6.6-0.1zm5.1-1.3c0-0.4-0.1-0.7-0.2-1s-0.3-0.6-0.5-0.8-0.5-0.4-0.8-0.5-0.7-0.2-1.1-0.2-0.8 0.1-1.1 0.2-0.6 0.3-0.8 0.6c-0.2 0.2-0.4 0.5-0.5 0.8s-0.2 0.6-0.2 0.9h5.2zm12.8 4.9c0 0.6-0.1 1.2-0.3 1.8-0.2 0.5-0.5 1-0.9 1.4s-0.9 0.7-1.5 0.9-1.2 0.3-1.9 0.3c-0.8 0-1.6-0.1-2.2-0.3-0.7-0.2-1.3-0.6-1.9-1.2l1.1-1.4c0.4 0.5 0.9 0.8 1.4 1s1 0.3 1.7 0.3c0.6 0 1.1-0.1 1.5-0.3s0.7-0.4 0.9-0.7 0.4-0.6 0.5-0.9c0.1-0.4 0.1-0.7 0.1-1.1v-1.3h-0.1c-0.3 0.5-0.7 0.9-1.3 1.1s-1.1 0.4-1.7 0.4-1.2-0.1-1.7-0.3-1-0.5-1.4-0.9-0.7-0.8-0.9-1.4c-0.2-0.5-0.3-1.1-0.3-1.7s0.1-1.2 0.3-1.8c0.2-0.5 0.5-1 0.9-1.4s0.8-0.7 1.4-1c0.5-0.2 1.1-0.3 1.8-0.3 0.6 0 1.1 0.1 1.7 0.4 0.5 0.3 1 0.6 1.3 1.1v-1.2h1.6v8.5h-0.1zm-4.5-7.1c-0.4 0-0.8 0.1-1.2 0.2-0.3 0.1-0.6 0.4-0.9 0.6l-0.6 0.9c-0.1 0.4-0.2 0.8-0.2 1.2 0 0.9 0.3 1.6 0.8 2.1s1.2 0.8 2 0.8c0.9 0 1.5-0.3 2-0.8s0.8-1.2 0.8-2.1c0-0.4-0.1-0.8-0.2-1.2s-0.3-0.7-0.6-0.9c-0.2-0.3-0.5-0.5-0.9-0.6-0.1-0.1-0.5-0.2-1-0.2zm7.5-0.3c0.5-0.4 1-0.7 1.6-0.9s1.2-0.3 1.8-0.3 1.2 0.1 1.6 0.2c0.4 0.2 0.8 0.4 1.1 0.6 0.3 0.3 0.5 0.6 0.6 0.9s0.2 0.7 0.2 1.1v4.3 0.8c0 0.3 0 0.5 0.1 0.7h-1.4c0-0.4-0.1-0.9-0.1-1.3-0.4 0.6-0.8 0.9-1.3 1.2-0.5 0.2-1.1 0.3-1.7 0.3-0.4 0-0.8-0.1-1.1-0.2-0.4-0.1-0.7-0.3-0.9-0.5-0.3-0.2-0.5-0.5-0.6-0.8-0.2-0.3-0.2-0.7-0.2-1.1 0-0.6 0.1-1 0.4-1.4 0.2-0.4 0.6-0.7 1-0.9s0.9-0.4 1.5-0.5 1.2-0.2 1.8-0.2h1.2v-0.4c0-0.2 0-0.4-0.1-0.6s-0.2-0.4-0.4-0.6-0.4-0.3-0.6-0.4c-0.3-0.1-0.6-0.2-0.9-0.2s-0.6 0-0.8 0.1-0.4 0.1-0.6 0.2-0.4 0.2-0.5 0.3c-0.2 0.1-0.3 0.2-0.4 0.3l-1.3-0.7zm4.6 3.4c-0.4 0-0.8 0-1.2 0.1-0.4 0-0.8 0.1-1.1 0.2s-0.6 0.3-0.8 0.5-0.3 0.5-0.3 0.8c0 0.5 0.2 0.8 0.5 1.1 0.3 0.2 0.8 0.3 1.3 0.3 0.4 0 0.8-0.1 1.1-0.2s0.6-0.3 0.8-0.6c0.2-0.2 0.3-0.5 0.4-0.8s0.1-0.6 0.1-0.9v-0.5h-0.8zm11.4-2.1c-0.3-0.3-0.6-0.5-0.9-0.7s-0.7-0.2-1.2-0.2c-0.4 0-0.8 0.1-1.2 0.2-0.3 0.2-0.6 0.4-0.8 0.7s-0.4 0.6-0.5 1-0.2 0.7-0.2 1.1 0.1 0.8 0.2 1.1c0.1 0.4 0.3 0.7 0.6 0.9 0.2 0.3 0.5 0.5 0.9 0.6 0.3 0.1 0.7 0.2 1.1 0.2 0.5 0 0.8-0.1 1.2-0.2 0.3-0.2 0.6-0.4 0.9-0.7l1.1 1.1c-0.4 0.5-0.9 0.8-1.5 1s-1.1 0.3-1.8 0.3-1.3-0.1-1.8-0.3-1-0.5-1.4-0.9-0.7-0.9-0.9-1.4-0.3-1.1-0.3-1.8 0.1-1.3 0.3-1.8 0.5-1 0.9-1.4 0.9-0.7 1.4-0.9 1.2-0.3 1.8-0.3 1.2 0.1 1.8 0.3 1.1 0.6 1.5 1l-1.2 1.1zm2.1-2.3h1.9l2.5 6.6 2.4-6.6h1.7l-4 10.3c-0.1 0.4-0.3 0.7-0.4 1-0.2 0.3-0.3 0.6-0.6 0.8-0.2 0.2-0.5 0.4-0.8 0.5s-0.7 0.2-1.1 0.2h-0.7s-0.5-0.1-0.7-0.2l0.2-1.5c0.3 0.1 0.6 0.2 1 0.2 0.3 0 0.5 0 0.6-0.1 0.2-0.1 0.3-0.2 0.4-0.3s0.2-0.3 0.3-0.4l0.3-0.6 0.5-1.3-3.5-8.6zm10.6 8.6c-0.3 0-0.6-0.1-0.8-0.3s-0.3-0.5-0.3-0.8 0.1-0.6 0.3-0.8 0.5-0.4 0.8-0.4 0.6 0.1 0.8 0.4c0.2 0.2 0.3 0.5 0.3 0.8s-0.1 0.6-0.3 0.8-0.5 0.3-0.8 0.3zm16 0.2c-1 0-1.9-0.2-2.7-0.5s-1.5-0.8-2.1-1.4-1-1.3-1.4-2.1c-0.3-0.8-0.5-1.7-0.5-2.6s0.2-1.8 0.5-2.6 0.8-1.5 1.4-2.1 1.3-1.1 2.1-1.4 1.7-0.5 2.7-0.5 1.9 0.2 2.7 0.5 1.5 0.8 2.1 1.4 1 1.3 1.4 2.1c0.3 0.8 0.5 1.7 0.5 2.6s-0.2 1.8-0.5 2.6-0.8 1.5-1.4 2.1-1.3 1.1-2.1 1.4c-0.8 0.4-1.7 0.5-2.7 0.5zm0-1.6c0.7 0 1.4-0.1 2-0.4s1.1-0.6 1.5-1.1 0.7-1 1-1.6c0.2-0.6 0.3-1.3 0.3-2s-0.1-1.3-0.3-2c-0.2-0.6-0.6-1.2-1-1.6-0.4-0.5-0.9-0.8-1.5-1.1s-1.2-0.4-2-0.4c-0.7 0-1.4 0.1-2 0.4s-1.1 0.6-1.5 1.1-0.7 1-1 1.6c-0.2 0.6-0.3 1.3-0.3 2s0.1 1.3 0.3 2c0.2 0.6 0.5 1.2 1 1.6 0.4 0.5 0.9 0.8 1.5 1.1s1.3 0.4 2 0.4zm16.8 1.3h-1.6v-1.3c-0.2 0.5-0.6 0.8-1.1 1.1s-1.1 0.4-1.7 0.4c-0.4 0-0.8-0.1-1.2-0.2s-0.7-0.3-1-0.6-0.5-0.6-0.7-1-0.3-0.9-0.3-1.5v-5.5h1.6v5c0 0.4 0.1 0.7 0.2 1s0.3 0.5 0.4 0.7c0.2 0.2 0.4 0.3 0.6 0.4s0.5 0.1 0.7 0.1c0.3 0 0.6-0.1 0.9-0.2s0.5-0.3 0.8-0.5c0.2-0.2 0.4-0.5 0.5-0.9s0.2-0.8 0.2-1.3v-4.4h1.6v8.7h0.1zm3.1-8.5h1.6v1.3c0.1-0.2 0.3-0.4 0.4-0.6 0.2-0.2 0.4-0.3 0.6-0.5s0.5-0.2 0.7-0.3c0.3-0.1 0.5-0.1 0.8-0.1s0.5 0 0.7 0.1l-0.1 1.7c-0.1 0-0.3-0.1-0.4-0.1s-0.3 0-0.4 0c-0.8 0-1.4 0.2-1.8 0.7-0.4 0.4-0.6 1.1-0.6 2.1v4.3h-1.6l0.1-8.6zm13.2-4.2h1.7v11.1h5.8v1.6h-7.6v-12.7h0.1zm9.2 1.1c0-0.3 0.1-0.6 0.3-0.8s0.5-0.3 0.8-0.3 0.6 0.1 0.8 0.3 0.3 0.5 0.3 0.8-0.1 0.6-0.3 0.8-0.5 0.4-0.8 0.4-0.6-0.1-0.8-0.4c-0.2-0.2-0.3-0.4-0.3-0.8zm0.4 3.1h1.6v8.5h-1.6v-8.5zm5.4 1.4h-1.8v-1.4h1.8v-1.9c0-1.1 0.2-2 0.7-2.5 0.4-0.6 1.2-0.8 2.3-0.8h0.6s0.4 0 0.6 0.1l-0.2 1.4c-0.2-0.1-0.3-0.1-0.4-0.1s-0.3 0-0.5 0c-0.3 0-0.5 0-0.7 0.1s-0.3 0.2-0.4 0.4-0.2 0.4-0.2 0.6 0 0.5 0 0.8v2h1.9v1.4h-1.9v7.1h-1.6v-7.2h-0.2zm7.2 3.4c0 0.4 0.1 0.7 0.2 1 0.2 0.3 0.4 0.6 0.6 0.8 0.3 0.2 0.6 0.4 0.9 0.5s0.7 0.2 1.1 0.2c0.5 0 0.9-0.1 1.3-0.3s0.7-0.5 1-0.9l1.2 0.9c-0.9 1.2-2.2 1.7-3.8 1.7-0.7 0-1.3-0.1-1.8-0.3s-1-0.5-1.4-0.9-0.7-0.9-0.9-1.4-0.3-1.1-0.3-1.8c0-0.6 0.1-1.2 0.3-1.8 0.2-0.5 0.5-1 0.9-1.4s0.9-0.7 1.4-0.9 1.1-0.3 1.8-0.3c0.8 0 1.4 0.1 1.9 0.4s0.9 0.6 1.3 1c0.3 0.4 0.6 0.9 0.7 1.4s0.2 1.1 0.2 1.6v0.6l-6.6-0.1zm5.1-1.3c0-0.4-0.1-0.7-0.2-1s-0.3-0.6-0.5-0.8-0.5-0.4-0.8-0.5-0.7-0.2-1.1-0.2-0.8 0.1-1.1 0.2-0.6 0.3-0.8 0.6c-0.2 0.2-0.4 0.5-0.5 0.8s-0.2 0.6-0.2 0.9h5.2zm5-1.8h-1.2l1-3.6h1.4l-1.2 3.6zm8.2 0.4c-0.2-0.2-0.4-0.4-0.7-0.6s-0.6-0.2-1-0.2-0.7 0.1-1 0.2c-0.3 0.2-0.4 0.4-0.4 0.7s0.1 0.5 0.2 0.6c0.2 0.2 0.4 0.3 0.6 0.4s0.5 0.2 0.7 0.2c0.3 0 0.5 0.1 0.6 0.1 0.3 0.1 0.7 0.2 1 0.3s0.6 0.3 0.8 0.5 0.4 0.4 0.5 0.7 0.2 0.6 0.2 1c0 0.5-0.1 0.9-0.3 1.2s-0.5 0.6-0.8 0.8-0.7 0.4-1.1 0.5-0.8 0.1-1.2 0.1c-0.7 0-1.3-0.1-1.9-0.3-0.5-0.2-1-0.6-1.4-1.2l1.2-1c0.3 0.3 0.6 0.5 0.9 0.7s0.7 0.3 1.2 0.3c0.2 0 0.4 0 0.6-0.1 0.2 0 0.4-0.1 0.6-0.2s0.3-0.2 0.4-0.3 0.2-0.3 0.2-0.5-0.1-0.4-0.2-0.6-0.3-0.3-0.5-0.4-0.4-0.2-0.7-0.2c-0.2-0.1-0.4-0.1-0.6-0.1-0.3-0.1-0.7-0.2-1-0.3s-0.6-0.3-0.8-0.4c-0.2-0.2-0.4-0.4-0.6-0.7-0.1-0.3-0.2-0.6-0.2-1s0.1-0.8 0.3-1.2c0.2-0.3 0.4-0.6 0.7-0.8s0.7-0.4 1-0.5c0.4-0.1 0.8-0.2 1.2-0.2 0.6 0 1.1 0.1 1.7 0.3 0.5 0.2 0.9 0.6 1.3 1.1l-1.5 1.1zm8.4-6.3h1.8l2.8 10.2 3-10.2h2l3 10.2 2.8-10.2h1.8l-3.7 12.7h-1.8l-3.1-10.4-3.1 10.4h-1.8l-3.7-12.7zm17.8 8.4c0-0.6 0.1-1.2 0.3-1.7s0.6-1 1-1.4 0.9-0.7 1.4-1c0.5-0.2 1.1-0.3 1.8-0.3s1.2 0.1 1.8 0.3 1 0.6 1.4 1 0.7 0.9 1 1.4c0.2 0.5 0.3 1.1 0.3 1.7s-0.1 1.2-0.3 1.7-0.6 1-1 1.4-0.9 0.7-1.4 1-1.1 0.3-1.8 0.3-1.2-0.1-1.8-0.3-1-0.6-1.4-1-0.7-0.9-1-1.4c-0.2-0.4-0.3-1-0.3-1.7zm1.7 0c0 0.4 0.1 0.8 0.2 1.2s0.3 0.7 0.6 0.9c0.2 0.3 0.5 0.5 0.9 0.6 0.3 0.1 0.7 0.2 1.2 0.2 0.4 0 0.8-0.1 1.2-0.2 0.3-0.1 0.6-0.4 0.9-0.6l0.6-0.9c0.1-0.4 0.2-0.8 0.2-1.2s-0.1-0.8-0.2-1.2-0.3-0.7-0.6-0.9c-0.2-0.3-0.5-0.5-0.9-0.6-0.3-0.1-0.7-0.2-1.2-0.2-0.4 0-0.8 0.1-1.2 0.2-0.3 0.1-0.6 0.4-0.9 0.6l-0.6 0.9c-0.1 0.4-0.2 0.8-0.2 1.2zm10-4.2h1.6v1.3c0.1-0.2 0.3-0.4 0.4-0.6 0.2-0.2 0.4-0.3 0.6-0.5 0.2-0.1 0.5-0.2 0.7-0.3 0.3-0.1 0.5-0.1 0.8-0.1s0.5 0 0.7 0.1l-0.1 1.7c-0.1 0-0.3-0.1-0.4-0.1s-0.3 0-0.4 0c-0.8 0-1.4 0.2-1.8 0.7-0.4 0.4-0.6 1.1-0.6 2.1v4.3h-1.6l0.1-8.6zm7.2-5.1h1.6v8.8l3.7-3.7h2.2l-4 3.9 4.3 4.6h-2.3l-3.9-4.4v4.4h-1.6v-13.6zm11.2 13.7c-0.3 0-0.6-0.1-0.8-0.3s-0.3-0.5-0.3-0.8 0.1-0.6 0.3-0.8 0.5-0.4 0.8-0.4 0.6 0.1 0.8 0.4c0.2 0.2 0.3 0.5 0.3 0.8s-0.1 0.6-0.3 0.8-0.5 0.3-0.8 0.3z"/>
</svg>
