<svg enable-background="new 0 0 2285.4 600" version="1.1" viewBox="0 0 2285.4 600" xml:space="preserve" xmlns="http://www.w3.org/2000/svg">
<style type="text/css">
	.logo-svg {fill:#0F1B42;}
</style>
<path class="logo-svg" d="m596 323.6h-2.7c-2.5 0-4.6-0.9-6.4-2.7s-2.7-3.9-2.7-6.4v-85.2c0.1-2.5 1-4.6 2.8-6.3s3.9-2.6 6.4-2.6h2.7v-2.8h-34.9v2.8h2.7c2.5 0 4.6 0.8 6.4 2.6s2.7 3.8 2.8 6.3v85.2c-0.1 2.5-1 4.6-2.8 6.4s-3.9 2.7-6.4 2.7h-2.7v2.8h34.8v-2.8zm28.5-2.5c-1.7 1.7-3.8 2.5-6.1 2.5h-3.6v2.8h32.9v-2.8h-3.6c-1.5 0-3-0.4-4.3-1.2-2.9-1.6-4.3-4.1-4.4-7.4v-74.8l82.5 88.1 0.2 0.2h2.4l-0.4-3.5c-0.7-5.2-1.1-10.9-1.1-16.8v-79.2c0.1-2.4 1-4.4 2.7-6.1s3.7-2.5 6.1-2.5h3.4v-2.8h-32.9v2.8h3.6c2.4 0 4.4 0.8 6.1 2.5s2.6 3.7 2.7 6.2v74.5l-82.5-88.1-0.2-0.2h-2.6l0.4 3.2c0.7 4.9 1.1 10.5 1.1 16.6v79.7c0.2 2.6-0.7 4.6-2.4 6.3zm149-100.5h2v-2.8h-35.8v2.8h1.9c2.4 0 4.9 0.8 7.2 2.3 2.4 1.5 4.3 3.9 5.7 7l43.1 98.4 0.2 0.4h2.5v-0.7c0-2.1 1.9-7.4 5.6-15.5l37-82.7c0.9-2 2.1-3.8 3.7-5.2 2.7-2.6 5.8-4 9.1-4h2v-2.8h-32.2v2.8h2c2 0 3.4 0.6 4.3 1.8 1 1.3 1.5 2.4 1.5 3.4 0 1.1-0.2 2.2-0.6 3.3l-32.8 78.9-31.5-78.9c-0.5-1.1-0.7-2.1-0.7-2.8 0-0.8 0.1-1.4 0.3-1.9 0.9-2.6 2.7-3.8 5.5-3.8zm159 15v-21l-0.9 0.3c-1.5 0.6-4.1 1.2-7.8 1.8s-7.1 0.9-10.2 0.9h-45.7l0.3 2.8h2.4c2.4 0 4.4 0.8 6.1 2.4s2.7 3.5 3 5.7v85.9c-0.1 2.5-1 4.6-2.8 6.4s-3.9 2.7-6.4 2.7h-2.5v2.8h64.8l9.1-25.3 0.3-0.9h-2.9l-0.2 0.4c-2.6 6.5-5.9 11.5-9.8 14.8-3.8 3.3-9.5 4.9-16.9 4.9h-21.3v-44.6h25.4c1.9 0.1 3.4 0.8 4.7 2.1s1.9 2.9 1.9 4.8v3h2.9v-25.6h-2.9v2.8c0 2-0.6 3.6-2 4.9-1.3 1.3-2.9 2-4.7 2.1h-25.3v-46.1h30.6c2.2 0.1 4 0.9 5.6 2.6 1.6 1.6 2.3 3.5 2.3 5.8v3.4h2.9v0.2zm32.9 61.9h-2.6l-0.1 0.5c-1.6 4.7-2.3 9.1-2.3 13.2 0 4.2 0.2 6.9 0.5 8.4v0.2l0.1 0.1c2.8 2.9 6.9 5.1 12 6.5s10 2.1 14.5 2.1c8.8 0 16-2.7 21.3-8.1s8-12.3 8-20.6-2.7-15-7.9-19.8l-30.2-27.9c-3.9-3.6-5.9-8-5.9-13s1.7-9.2 5.1-12.6c3.4-3.3 7.7-5 12.7-5s9.2 1.4 12.4 4.1c3.2 2.8 4.8 6.4 4.8 11v0.7h2.7v-20.2h-6.5c-4.9-1-9.4-1.6-13.3-1.6-8.4 0-15.2 2.7-20.2 8s-7.5 11.7-7.5 19.1 2.9 13.8 8.5 19.1l29.5 27.3c3.8 3.5 5.8 8.2 5.8 13.9s-2 10.4-6 14.2-9.2 5.7-15.4 5.7c-6 0-10.9-2-14.6-6s-5.5-9.1-5.5-15.1c0-1.1 0.1-2.2 0.1-3.3v-0.9zm102.8 23.5c-1.8 1.7-3.9 2.6-6.4 2.6h-2.7v2.8h34.9v-2.8h-2.7c-2.5 0-4.6-0.8-6.4-2.6-1.8-1.7-2.7-3.8-2.8-6.3v-91.3h28.5c2.2 0.1 4.1 1 5.7 2.6s2.4 3.6 2.4 5.9v3.2l2.9 0.3v-21.1l-0.9 0.4c-0.7 0.3-2.7 0.8-5.9 1.6-3.3 0.8-7.4 1.1-12.4 1.1h-51.9c-3.1 0-6.6-0.3-10.3-0.9-3.8-0.6-6.4-1.2-7.8-1.8l-0.9-0.4v21l2.9-0.3v-3c0-2.3 0.8-4.3 2.4-5.9 1.6-1.7 3.5-2.5 5.7-2.6h28.5v91.4c-0.1 2.4-1 4.4-2.8 6.1zm118.9 7.6c16.5 0 30.1-5.3 40.4-15.6 10.3-10.4 15.5-24.1 15.5-40.9s-5.2-30.5-15.5-40.9-23.9-15.6-40.4-15.6-30 5.3-40.3 15.6c-10.3 10.4-15.5 24.1-15.5 40.9s5.2 30.5 15.5 40.9c10.2 10.4 23.8 15.6 40.3 15.6zm-30.9-93.2c7.8-9.2 18.2-13.9 30.9-13.9 8.4 0 16 2.1 22.4 6.3 6.5 4.2 11.5 10.1 15 17.8 3.5 7.6 5.3 16.6 5.3 26.6 0 15.1-4 27.5-11.7 36.7-7.8 9.2-18.2 13.9-31 13.9s-23.2-4.7-31-13.9-11.7-21.6-11.7-36.7 4-27.6 11.8-36.8zm106.9 85.6c-1.8 1.7-3.9 2.6-6.4 2.6h-2.7v2.8h35l-0.3-2.8h-2.4c-2.6 0-4.7-0.9-6.5-2.7s-2.6-3.9-2.6-6.4v-90.8h9.2c3.6 0 6.7 0.1 9.2 0.1 5.5 0.3 9.9 2.5 13.2 6.5 3.3 4.1 5 9.5 5.2 16.2v3.5c0 1.7-0.3 3.6-0.9 5.6-3.2 10-11 15.2-23.3 15.5-3.8 0.2-6.4 0.2-8 0l-0.7-0.1v2.9h0.7c3.1 0 6.2 1.7 9.3 5 1.1 1.2 2.2 2.5 3.2 3.7 1 1.3 4.7 6.5 10.9 15.4 6.1 8.8 11.6 16.5 13.1 18.2 1.4 1.6 3 3.2 5 5 1.9 1.7 4.9 3.4 8.7 5s8.1 2.4 12.5 2.4h9.1v-2.8h-0.7c-3.3 0-6.4-0.7-9.2-2.1-1.3-0.6-2.6-1.4-3.9-2.4s-2.5-2.1-3.6-3.1c-1.1-1.1-3-3.1-5.6-5.9-2.5-2.7-9.8-12.6-18.8-25.5-1.6-2.2-3.5-4.5-5.7-6.6-1.4-1.3-2.6-2.4-3.7-3.2 6.5-0.6 12.1-3.6 16.8-9.1 5.1-6.1 7.8-13.4 7.8-21.8s-2.8-15.3-8.2-20.6-13-7.9-22.4-7.9h-42.1v2.8h2.7c2.5 0 4.6 0.9 6.4 2.6 1.8 1.8 2.7 3.9 2.8 6.4v85.2c-0.4 2.6-1.3 4.7-3.1 6.4zm448.4 0c-1.8 1.7-3.9 2.6-6.4 2.6h-2.7v2.8h35l-0.3-2.8h-2.4c-2.6 0-4.7-0.9-6.5-2.7s-2.6-3.9-2.6-6.4v-90.8h9.2c3.6 0 6.7 0.1 9.2 0.1 5.5 0.3 9.9 2.5 13.2 6.5 3.3 4.1 5 9.5 5.2 16.2v3.5c0 1.7-0.3 3.6-0.9 5.6-3.2 10-11 15.2-23.3 15.5-3.8 0.2-6.4 0.2-8 0l-0.7-0.1v2.9h0.7c3.1 0 6.2 1.7 9.3 5 1.1 1.2 2.2 2.5 3.2 3.7 1 1.3 4.7 6.5 10.9 15.4 6.1 8.8 11.6 16.5 13.1 18.2 1.4 1.6 3 3.2 5 5 1.9 1.7 4.9 3.4 8.7 5s8.1 2.4 12.5 2.4h9.1v-2.8h-0.7c-3.3 0-6.4-0.7-9.2-2.1-1.3-0.6-2.6-1.4-3.9-2.4s-2.5-2.1-3.6-3.1c-1.1-1.1-3-3.1-5.6-5.9-2.5-2.7-9.8-12.6-18.8-25.5-1.6-2.2-3.5-4.5-5.7-6.6-1.4-1.3-2.6-2.4-3.7-3.2 6.5-0.6 12.1-3.6 16.8-9.1 5.1-6.1 7.8-13.4 7.8-21.8s-2.8-15.3-8.2-20.6-13-7.9-22.4-7.9h-42.1v2.8h2.7c2.5 0 4.6 0.9 6.4 2.6 1.8 1.8 2.7 3.9 2.8 6.4v85.2c-0.4 2.6-1.3 4.7-3.1 6.4zm-347.7-23.5h-2.6l-0.1 0.5c-1.6 4.7-2.3 9.1-2.3 13.2 0 4.2 0.2 6.9 0.5 8.4v0.2l0.1 0.1c2.8 2.9 6.9 5.1 12 6.5s10 2.1 14.5 2.1c8.8 0 16-2.7 21.3-8.1s8-12.3 8-20.6-2.7-15-7.9-19.8l-30.2-27.9c-3.9-3.6-5.9-8-5.9-13s1.7-9.2 5.1-12.6c3.4-3.3 7.7-5 12.7-5s9.2 1.4 12.4 4.1c3.2 2.8 4.8 6.4 4.8 11v0.7h2.7v-20.2h-6.5c-4.9-1-9.4-1.6-13.3-1.6-8.4 0-15.2 2.7-20.2 8s-7.5 11.7-7.5 19.1 2.9 13.8 8.5 19.1l29.5 27.3c3.8 3.5 5.8 8.2 5.8 13.9s-2 10.4-6 14.2-9.2 5.7-15.4 5.7c-6 0-10.9-2-14.6-6s-5.5-9.1-5.5-15.1c0-1.1 0.1-2.2 0.1-3.3v-0.9zm151.9 23.5c-1.8-1.8-2.7-3.9-2.7-6.4v-38.9h61.5v39.1c-0.1 2.5-1 4.6-2.8 6.3s-3.9 2.6-6.4 2.6h-2.7v2.8h34.9v-2.8h-2.7c-2.5 0-4.6-0.9-6.4-2.7s-2.7-3.9-2.8-6.4v-85c0.1-2.5 1-4.6 2.8-6.4s3.9-2.6 6.4-2.6h2.7v-2.8h-34.9v2.8h2.7c1.6 0 3.2 0.4 4.6 1.1 3 1.7 4.5 4.3 4.6 7.7v40.3h-61.5v-40.3c0.1-2.5 1-4.6 2.8-6.3s3.9-2.6 6.4-2.6h2.7v-2.8h-34.9v2.8h2.7c2.5 0 4.6 0.8 6.4 2.6 1.8 1.7 2.7 3.8 2.8 6.3v85.2c-0.1 2.5-1 4.6-2.8 6.4s-3.9 2.7-6.4 2.7h-2.7v2.8h34.9v-2.8h-2.7c-2.6-0.1-4.7-1-6.5-2.7zm164.8-85.4v-21l-0.9 0.3c-1.5 0.6-4.1 1.2-7.8 1.8s-7.1 0.9-10.2 0.9h-45.7l0.3 2.8h2.4c2.4 0 4.4 0.8 6.1 2.4s2.7 3.5 3 5.7v85.9c-0.1 2.5-1 4.6-2.8 6.4s-3.9 2.7-6.4 2.7h-2.7v2.8h64.8l9.1-25.3 0.3-0.9h-2.9l-0.2 0.4c-2.6 6.5-5.9 11.5-9.8 14.8-3.8 3.3-9.5 4.9-16.9 4.9h-21.3v-44.6h25.4c1.9 0.1 3.4 0.8 4.7 2.1s1.9 2.9 1.9 4.8v3h2.9v-25.6h-2.9v2.8c0 2-0.6 3.6-2 4.9-1.3 1.3-2.9 2-4.7 2.1h-25.3v-46.1h30.6c2.2 0.1 4 0.9 5.6 2.6 1.6 1.6 2.3 3.5 2.3 5.8v3.4h3.1v0.2zm139.1 85.4c-1.8 1.8-3.9 2.7-6.4 2.7h-2.7v2.8h34.9v-2.8h-2.7c-2.5 0-4.6-0.9-6.4-2.7s-2.7-3.9-2.7-6.4v-85.2c0.1-2.5 1-4.6 2.8-6.3s3.9-2.6 6.4-2.6h2.7v-2.8h-34.9v2.8h2.7c2.5 0 4.6 0.8 6.4 2.6 1.8 1.7 2.7 3.8 2.8 6.3v85.2c-0.2 2.5-1.1 4.6-2.9 6.4zm124.1-104.6c-3.3 0.8-7.4 1.1-12.4 1.1h-51.9c-3.1 0-6.6-0.3-10.3-0.9-3.8-0.6-6.4-1.2-7.8-1.8l-0.9-0.4v21l2.9-0.3v-3.1c0-2.3 0.8-4.3 2.4-5.9 1.6-1.7 3.5-2.5 5.7-2.6h28.5v91.4c-0.1 2.4-1 4.4-2.8 6.2-1.8 1.7-3.9 2.6-6.4 2.6h-2.7v2.8h34.9v-2.8h-2.7c-2.5 0-4.6-0.8-6.4-2.6-1.8-1.7-2.7-3.8-2.8-6.3v-91.3h28.5c2.2 0.1 4.1 1 5.7 2.6s2.4 3.6 2.4 5.9v3.2l2.9 0.3v-21.1l-0.9 0.4c-0.6 0.4-2.6 0.9-5.9 1.6zm80.5 107.2h-2v2.8h35.8v-2.8h-1.9c-2.5 0-5-0.8-7.3-2.3-2.3-1.6-4.2-3.9-5.6-6.9l-41.1-98.4-0.2-0.4h-2.5v0.7c0 2.1-1.9 7.4-5.6 15.6l-34.7 82.5c-1.5 3.1-3.4 5.4-5.8 7s-4.7 2.3-7.2 2.3h-2v2.8h32.2v-2.8h-2c-1.9 0-3.4-0.6-4.3-1.8-1-1.3-1.5-2.4-1.5-3.4 0-1.1 0.2-2.3 0.6-3.4l10.1-25.8h40.5l9.7 25.6c0.4 1.2 0.6 2.3 0.6 3.5 0 1.1-0.5 2.3-1.5 3.5-0.9 1.1-2.3 1.7-4.3 1.7zm-42.6-40.3l18.4-46.8 17.5 46.8h-35.9zm132.4-61.8c9.9 0 18.4 2.4 25 7s11.1 11.4 13.3 20l0.1 0.5h2.6l-3.2-22.7-0.3-0.2c-10.8-7-23.5-10.5-37.7-10.5-16.5 0-30 5.3-40.3 15.6-10.3 10.4-15.5 24.1-15.5 40.9s5.2 30.5 15.5 40.8 23.8 15.6 40.3 15.7c7.3 0 14.2-1.1 20.4-3.2s11.3-4.6 15-7.4 7-6 9.6-9.5l0.1-0.2v-25.6c-0.1-2.1 0.4-3.6 1.6-4.6 1.2-1.1 3-1.6 5.4-1.6h3v-2.8h-31.4v2.8h3.1c2.3 0 4.1 0.5 5.3 1.6 1.2 1 1.8 2.6 1.8 4.6v26.9c-4.4 4-9.5 7.2-15.3 9.5-5.9 2.3-12.2 3.5-18.7 3.5-12.7-0.1-23.2-4.8-31-14-7.9-9.2-11.9-21.5-11.9-36.6s4-27.5 11.9-36.7c8.1-9.1 18.6-13.8 31.3-13.8zm128.5 14.1v-21l-0.9 0.3c-1.5 0.6-4.1 1.2-7.8 1.8s-7.1 0.9-10.2 0.9h-45.7l0.3 2.8h2.4c2.4 0 4.4 0.8 6.1 2.4s2.7 3.5 3 5.7v85.9c-0.1 2.5-1 4.6-2.8 6.4s-3.9 2.7-6.4 2.7h-2.7v2.8h64.8l9.1-25.3 0.3-0.9h-2.9l-0.2 0.4c-2.6 6.5-5.9 11.5-9.8 14.8-3.8 3.3-9.5 4.9-16.9 4.9h-21.2v-44.6h25.4c1.9 0.1 3.4 0.8 4.7 2.1s1.9 2.9 1.9 4.8v3h2.9v-25.6h-2.9v2.8c0 2-0.6 3.6-2 4.9-1.3 1.3-2.9 2-4.7 2.1h-25.3v-46.1h30.6c2.2 0.1 4 0.9 5.6 2.6 1.6 1.6 2.3 3.5 2.3 5.8v3.4h3v0.2zm-1643.4 157.8c20.9 0 32.6 16.5 32.6 31.7s-11.7 31.7-32.6 31.7-32.6-16.5-32.6-31.7c-0.1-15.2 11.7-31.7 32.6-31.7zm0 56.1c12.5 0 24.4-9.9 24.4-24.4 0-14.6-11.8-24.4-24.4-24.4-12.5 0-24.4 9.9-24.4 24.4 0 14.6 11.8 24.4 24.4 24.4zm45.4-35.8h7.3v6.6h0.2c3.5-5 9.8-7.6 16-7.6 11.9 0 21.9 9.5 21.9 21.6 0 13.3-10.5 22.5-22.3 22.5-7.3 0-12.6-3.1-15.7-7.4h-0.2v24.3h-7.3l0.1-60zm22.2 5.8c-7.9 0-14.9 6.8-14.9 15.3 0 8.4 6.8 15.2 15.1 15.2 7.7 0 15.2-5.9 15.2-15.6 0.1-7-5.5-14.9-15.4-14.9zm75.5 28.2c-5.7 6.3-11.6 9.1-19 9.1-15 0-23-10.8-23-22.1 0-12 8.6-22 21.8-22 13 0 22.1 10 22.1 24.9h-36.1c1.1 7.2 7 12.5 15.1 12.5 5.2 0 9.8-2.4 13.5-6.8l5.6 4.4zm-6.4-16.1c-0.7-7-6.4-12.1-13.9-12.1-8.9 0-13.2 6.3-13.9 12.1h27.8zm48-0.3c0-6.3-2.6-11.8-9.8-11.8-6.8 0-10.9 4.6-10.9 12.6v23.7h-7.3v-42.2h7.3v4.9h0.2c2.2-3.8 6.9-5.9 11.6-5.9 8.2 0 16.3 4.5 16.3 15.9v27.3h-7.3l-0.1-24.5zm46.7-27.8h7.3v10.2h6.7v6.4h-6.7v25.9c0 2.3 0.7 3.1 3.6 3.1h3.3v6.7c-1.1 0.1-2.8 0.1-4.5 0.1-7.4 0-9.7-2.6-9.7-9.1v-26.7h-5.8v-6.4h5.8v-10.2zm46.9 9.2c13.3 0 22.8 10.2 22.8 22.1 0 12.1-9.1 22-22.8 22s-22.8-10-22.8-22c0-11.9 9.6-22.1 22.8-22.1zm-15 22.1c0 8.1 7 15.2 15.1 15.2s15.1-7.1 15.1-15.2c0-8.7-7-15.3-15.1-15.3s-15.1 6.6-15.1 15.3zm76.5-31.3h7.3v10.2h6.7v6.4h-6.7v25.9c0 2.3 0.7 3.1 3.6 3.1h3.3v6.7c-1.1 0.1-2.8 0.1-4.5 0.1-7.4 0-9.7-2.6-9.7-9.1v-26.7h-5.8v-6.4h5.8v-10.2zm52.9 27.8c0-6.3-2.6-11.8-9.8-11.8-6.8 0-10.9 4.6-10.9 12.6v23.7h-7.3v-61.5h7.3v24.3h0.2c2.2-3.8 6.9-5.9 11.6-5.9 8.2 0 16.3 4.5 16.3 15.9v27.3h-7.3l-0.1-24.6zm61.2 16.4c-5.7 6.3-11.7 9.1-19 9.1-15 0-23-10.8-23-22.1 0-12 8.6-22 21.8-22 13 0 22.1 10 22.1 24.9h-36.1c1.1 7.2 7 12.5 15.1 12.5 5.2 0 9.8-2.4 13.5-6.8l5.6 4.4zm-6.4-16.1c-0.7-7-6.4-12.1-13.9-12.1-8.9 0-13.2 6.3-13.9 12.1h27.8zm44.3-37.3h31.8v7.3h-24v19.5h24v7.3h-24v27.4h-7.8v-61.5zm72.2 56.6h-0.2c-2.2 3.8-6.9 5.9-11.6 5.9-8.2 0-16.3-4.5-16.3-15.9v-27.3h7.3v24.5c0 6.3 2.6 11.8 9.8 11.8 6.8 0 10.9-4.6 10.9-12.6v-23.7h7.3v42.2h-7.3l0.1-4.9zm22.9-47.4h7.3v10.2h6.7v6.4h-6.7v25.9c0 2.3 0.7 3.1 3.6 3.1h3.3v6.7c-1.1 0.1-2.8 0.1-4.5 0.1-7.4 0-9.7-2.6-9.7-9.1v-26.7h-5.8v-6.4h5.8v-10.2zm52.9 47.4h-0.2c-2.2 3.8-6.9 5.9-11.6 5.9-8.2 0-16.3-4.5-16.3-15.9v-27.3h7.3v24.5c0 6.3 2.6 11.8 9.8 11.8 6.8 0 10.9-4.6 10.9-12.6v-23.7h7.3v42.2h-7.3l0.1-4.9zm21.6-37.2h7.3v6h0.2c3.6-6.6 7.1-7 13.3-7v7.7c-1-0.2-2.2-0.4-3.3-0.4-6.1 0-10.1 4.2-10.1 11.9v24h-7.3l-0.1-42.2zm69.4 34c-5.7 6.3-11.7 9.1-19 9.1-15 0-23-10.8-23-22.1 0-12 8.6-22 21.8-22 13 0 22.1 10 22.1 24.9h-36.1c1.1 7.2 7 12.5 15.1 12.5 5.2 0 9.8-2.4 13.5-6.8l5.6 4.4zm-6.4-16.1c-0.7-7-6.4-12.1-13.9-12.1-8.9 0-13.2 6.3-13.9 12.1h27.8zm-1300.6-410.7v556.7h356.3v-556.7h-356.3zm238.7 305.8v178.5l91.1 55.4-303.3-0.2 90.1-55.2v-178.4h19.8v-55.1h-19.8v-176.2l-90-55.2 303.2-0.3-91.1 55.4v176.2h-20.1v55.1h20.1z"/>
</svg>
