<svg version="1.1" id="Layer_1" xmlns="http://www.w3.org/2000/svg" xmlns:xlink="http://www.w3.org/1999/xlink" x="0px" y="0px"
	 viewBox="0 0 2254.3 152.5" style="enable-background:new 0 0 2254.3 152.5;" xml:space="preserve">
<style type="text/css">
	.logo-svg{fill:#0F1B42;}
</style>
<path class="logo-svg" d="M46.4,145.7h-3.6c-3.3,0-6.1-1.2-8.5-3.6c-2.4-2.4-3.6-5.2-3.6-8.5V20c0.1-3.3,1.3-6.1,3.7-8.4s5.2-3.5,8.5-3.5
	h3.6V4.4H0v3.7h3.6c3.3,0,6.1,1.1,8.5,3.5s3.6,5.1,3.7,8.4v113.6c-0.1,3.3-1.3,6.1-3.7,8.5s-5.2,3.6-8.5,3.6H0v3.7h46.4L46.4,145.7
	L46.4,145.7z M84.4,142.4c-2.3,2.3-5.1,3.3-8.1,3.3h-4.8v3.7h43.9v-3.7h-4.8c-2,0-4-0.5-5.7-1.6c-3.9-2.1-5.7-5.5-5.9-9.9V34.5
	l110,117.5l0.3,0.3h3.2l-0.5-4.7c-0.9-6.9-1.5-14.5-1.5-22.4V19.6c0.1-3.2,1.3-5.9,3.6-8.1s4.9-3.3,8.1-3.3h4.5V4.4h-43.9v3.7h4.8
	c3.2,0,5.9,1.1,8.1,3.3s3.5,4.9,3.6,8.3v99.3L89.3,1.6l-0.3-0.3h-3.5l0.5,4.3c0.9,6.5,1.5,14,1.5,22.1V134
	C87.9,137.5,86.7,140.1,84.4,142.4L84.4,142.4z M283.1,8.4h2.7V4.7H238v3.7h2.5c3.2,0,6.5,1.1,9.6,3.1c3.2,2,5.7,5.2,7.6,9.3
	L315.2,152l0.3,0.5h3.3v-0.9c0-2.8,2.5-9.9,7.5-20.7l49.3-110.3c1.2-2.7,2.8-5.1,4.9-6.9c3.6-3.5,7.7-5.3,12.1-5.3h2.7V4.7h-42.9
	v3.7h2.7c2.7,0,4.5,0.8,5.7,2.4c1.3,1.7,2,3.2,2,4.5c0,1.5-0.3,2.9-0.8,4.4l-43.7,105.2l-42-105.2c-0.7-1.5-0.9-2.8-0.9-3.7
	c0-1.1,0.1-1.9,0.4-2.5C276.9,10,279.3,8.4,283.1,8.4z M495.1,28.4v-28l-1.2,0.4c-2,0.8-5.5,1.6-10.4,2.4c-4.9,0.8-9.5,1.2-13.6,1.2
	h-60.9l0.4,3.7h3.2c3.2,0,5.9,1.1,8.1,3.2s3.6,4.7,4,7.6v114.5c-0.1,3.3-1.3,6.1-3.7,8.5c-2.4,2.4-5.2,3.6-8.5,3.6h-3.3v3.7h86.4
	l12.1-33.7l0.4-1.2h-3.9l-0.3,0.5c-3.5,8.7-7.9,15.3-13.1,19.7c-5.1,4.4-12.7,6.5-22.5,6.5h-28.4V81.7h33.9c2.5,0.1,4.5,1.1,6.3,2.8
	c1.7,1.7,2.5,3.9,2.5,6.4v4h3.9V60.8h-3.9v3.7c0,2.7-0.8,4.8-2.7,6.5c-1.7,1.7-3.9,2.7-6.3,2.8h-33.7V12.4h40.8
	c2.9,0.1,5.3,1.2,7.5,3.5c2.1,2.1,3.1,4.7,3.1,7.7v4.5h3.9L495.1,28.4L495.1,28.4z M538.9,110.9h-3.5l-0.1,0.7
	c-2.1,6.3-3.1,12.1-3.1,17.6c0,5.6,0.3,9.2,0.7,11.2v0.3l0.1,0.1c3.7,3.9,9.2,6.8,16,8.7c6.8,1.9,13.3,2.8,19.3,2.8
	c11.7,0,21.3-3.6,28.4-10.8c7.1-7.2,10.7-16.4,10.7-27.5s-3.6-20-10.5-26.4l-40.3-37.2c-5.2-4.8-7.9-10.7-7.9-17.3
	s2.3-12.3,6.8-16.8c4.5-4.4,10.3-6.7,16.9-6.7c6.7,0,12.3,1.9,16.5,5.5c4.3,3.7,6.4,8.5,6.4,14.7v0.9h3.6V3.7h-8.7
	c-6.5-1.3-12.5-2.1-17.7-2.1c-11.2,0-20.3,3.6-26.9,10.7c-6.7,7.1-10,15.6-10,25.5s3.9,18.4,11.3,25.5l39.3,36.4
	c5.1,4.7,7.7,10.9,7.7,18.5c0,7.6-2.7,13.9-8,18.9c-5.3,5.1-12.3,7.6-20.5,7.6c-8,0-14.5-2.7-19.5-8c-4.9-5.3-7.3-12.1-7.3-20.1
	c0-1.5,0.1-2.9,0.1-4.4L538.9,110.9L538.9,110.9z M676,142.3c-2.4,2.3-5.2,3.5-8.5,3.5h-3.6v3.7h46.5v-3.7h-3.6
	c-3.3,0-6.1-1.1-8.5-3.5c-2.4-2.3-3.6-5.1-3.7-8.4V12.1h38c2.9,0.1,5.5,1.3,7.6,3.5s3.2,4.8,3.2,7.9v4.3l3.9,0.4V0L746,0.5
	c-0.9,0.4-3.6,1.1-7.9,2.1c-4.4,1.1-9.9,1.5-16.5,1.5h-69.2c-4.1,0-8.8-0.4-13.7-1.2c-5.1-0.8-8.5-1.6-10.4-2.4L627,0v28l3.9-0.4v-4
	c0-3.1,1.1-5.7,3.2-7.9c2.1-2.3,4.7-3.3,7.6-3.5h38v121.9C679.6,137.3,678.4,140,676,142.3L676,142.3z M834.5,152.4
	c22,0,40.1-7.1,53.9-20.8c13.7-13.9,20.7-32.1,20.7-54.5s-6.9-40.7-20.7-54.5C874.6,8.7,856.5,1.7,834.5,1.7c-22,0-40,7.1-53.7,20.8
	c-13.7,13.9-20.7,32.1-20.7,54.5s6.9,40.7,20.7,54.5C794.4,145.5,812.5,152.4,834.5,152.4z M793.3,28.1
	c10.4-12.3,24.3-18.5,41.2-18.5c11.2,0,21.3,2.8,29.9,8.4c8.7,5.6,15.3,13.5,20,23.7c4.7,10.1,7.1,22.1,7.1,35.5
	c0,20.1-5.3,36.7-15.6,48.9c-10.4,12.3-24.3,18.5-41.3,18.5s-30.9-6.3-41.3-18.5c-10.4-12.3-15.6-28.8-15.6-48.9
	S782.9,40.4,793.3,28.1L793.3,28.1z M935.8,142.3c-2.4,2.3-5.2,3.5-8.5,3.5h-3.6v3.7h46.7l-0.4-3.7h-3.2c-3.5,0-6.3-1.2-8.7-3.6
	c-2.4-2.4-3.5-5.2-3.5-8.5V12.5h12.3c4.8,0,8.9,0.1,12.3,0.1c7.3,0.4,13.2,3.3,17.6,8.7c4.4,5.5,6.7,12.7,6.9,21.6v4.7
	c0,2.3-0.4,4.8-1.2,7.5c-4.3,13.3-14.7,20.3-31.1,20.7c-5.1,0.3-8.5,0.3-10.7,0l-0.9-0.1v3.9h0.9c4.1,0,8.3,2.3,12.4,6.7
	c1.5,1.6,2.9,3.3,4.3,4.9c1.3,1.7,6.3,8.7,14.5,20.5c8.1,11.7,15.5,22,17.5,24.3c1.9,2.1,4,4.3,6.7,6.7c2.5,2.3,6.5,4.5,11.6,6.7
	s10.8,3.2,16.7,3.2h12.1v-3.7h-0.9c-4.4,0-8.5-0.9-12.3-2.8c-1.7-0.8-3.5-1.9-5.2-3.2c-1.7-1.3-3.3-2.8-4.8-4.1
	c-1.5-1.5-4-4.1-7.5-7.9c-3.3-3.6-13.1-16.8-25.1-34c-2.1-2.9-4.7-6-7.6-8.8c-1.9-1.7-3.5-3.2-4.9-4.3c8.7-0.8,16.1-4.8,22.4-12.1
	c6.8-8.1,10.4-17.9,10.4-29.1s-3.7-20.4-10.9-27.5S992.8,4.4,980.2,4.4h-56.1v3.7h3.6c3.3,0,6.1,1.2,8.5,3.5
	c2.4,2.4,3.6,5.2,3.7,8.5v113.6C939.4,137.2,938.2,140,935.8,142.3L935.8,142.3z M1533.7,142.3c-2.4,2.3-5.2,3.5-8.5,3.5h-3.6v3.7
	h46.7l-0.4-3.7h-3.2c-3.5,0-6.3-1.2-8.7-3.6c-2.4-2.4-3.5-5.2-3.5-8.5V12.5h12.3c4.8,0,8.9,0.1,12.3,0.1c7.3,0.4,13.2,3.3,17.6,8.7
	c4.4,5.5,6.7,12.7,6.9,21.6v4.7c0,2.3-0.4,4.8-1.2,7.5c-4.3,13.3-14.7,20.3-31.1,20.7c-5.1,0.3-8.5,0.3-10.7,0l-0.9-0.1v3.9h0.9
	c4.1,0,8.3,2.3,12.4,6.7c1.5,1.6,2.9,3.3,4.3,4.9c1.3,1.7,6.3,8.7,14.5,20.5c8.1,11.7,15.5,22,17.5,24.3c1.9,2.1,4,4.3,6.7,6.7
	c2.5,2.3,6.5,4.5,11.6,6.7s10.8,3.2,16.7,3.2h12.1v-3.7h-0.9c-4.4,0-8.5-0.9-12.3-2.8c-1.7-0.8-3.5-1.9-5.2-3.2
	c-1.7-1.3-3.3-2.8-4.8-4.1c-1.5-1.5-4-4.1-7.5-7.9c-3.3-3.6-13.1-16.8-25.1-34c-2.1-2.9-4.7-6-7.6-8.8c-1.9-1.7-3.5-3.2-4.9-4.3
	c8.7-0.8,16.1-4.8,22.4-12.1c6.8-8.1,10.4-17.9,10.4-29.1s-3.7-20.4-10.9-27.5c-7.2-7.1-17.3-10.5-29.9-10.5H1522v3.7h3.6
	c3.3,0,6.1,1.2,8.5,3.5c2.4,2.4,3.6,5.2,3.7,8.5v113.6C1537.3,137.2,1536.1,140,1533.7,142.3L1533.7,142.3z M1070.1,110.9h-3.5
	l-0.1,0.7c-2.1,6.3-3.1,12.1-3.1,17.6c0,5.6,0.3,9.2,0.7,11.2v0.3l0.1,0.1c3.7,3.9,9.2,6.8,16,8.7c6.8,1.9,13.3,2.8,19.3,2.8
	c11.7,0,21.3-3.6,28.4-10.8s10.7-16.4,10.7-27.5s-3.6-20-10.5-26.4l-40.3-37.2c-5.2-4.8-7.9-10.7-7.9-17.3s2.3-12.3,6.8-16.8
	c4.5-4.4,10.3-6.7,16.9-6.7c6.7,0,12.3,1.9,16.5,5.5c4.3,3.7,6.4,8.5,6.4,14.7v0.9h3.6V3.7h-8.7c-6.5-1.3-12.5-2.1-17.7-2.1
	c-11.2,0-20.3,3.6-26.9,10.7c-6.7,7.1-10,15.6-10,25.5s3.9,18.4,11.3,25.5l39.3,36.4c5.1,4.7,7.7,10.9,7.7,18.5
	c0,7.6-2.7,13.9-8,18.9c-5.3,5.1-12.3,7.6-20.5,7.6c-8,0-14.5-2.7-19.5-8c-4.9-5.3-7.3-12.1-7.3-20.1c0-1.5,0.1-2.9,0.1-4.4V110.9
	L1070.1,110.9z M1272.6,142.3c-2.4-2.4-3.6-5.2-3.6-8.5V81.9h82V134c-0.1,3.3-1.3,6.1-3.7,8.4c-2.4,2.3-5.2,3.5-8.5,3.5h-3.6v3.7
	h46.5v-3.7h-3.6c-3.3,0-6.1-1.2-8.5-3.6c-2.4-2.4-3.6-5.2-3.7-8.5V20.4c0.1-3.3,1.3-6.1,3.7-8.5c2.4-2.4,5.2-3.5,8.5-3.5h3.6V4.7
	h-46.5v3.7h3.6c2.1,0,4.3,0.5,6.1,1.5c4,2.3,6,5.7,6.1,10.3v53.7h-82V20.1c0.1-3.3,1.3-6.1,3.7-8.4s5.2-3.5,8.5-3.5h3.6V4.5h-46.5
	v3.7h3.6c3.3,0,6.1,1.1,8.5,3.5c2.4,2.3,3.6,5.1,3.7,8.4v113.6c-0.1,3.3-1.3,6.1-3.7,8.5c-2.4,2.4-5.2,3.6-8.5,3.6h-3.6v3.7h46.5
	v-3.7h-3.6C1277.8,145.7,1275,144.5,1272.6,142.3z M1492.4,28.4v-28l-1.2,0.4c-2,0.8-5.5,1.6-10.4,2.4c-4.9,0.8-9.5,1.2-13.6,1.2
	h-60.9l0.4,3.7h3.2c3.2,0,5.9,1.1,8.1,3.2c2.3,2.1,3.6,4.7,4,7.6v114.5c-0.1,3.3-1.3,6.1-3.7,8.5c-2.4,2.4-5.2,3.6-8.5,3.6h-3.6v3.7
	h86.4l12.1-33.7l0.4-1.2h-3.9l-0.3,0.5c-3.5,8.7-7.9,15.3-13.1,19.7c-5.1,4.4-12.7,6.5-22.5,6.5h-28.4V81.7h33.9
	c2.5,0.1,4.5,1.1,6.3,2.8c1.7,1.7,2.5,3.9,2.5,6.4v4h3.9V60.8h-3.9v3.7c0,2.7-0.8,4.8-2.7,6.5c-1.7,1.7-3.9,2.7-6.3,2.8h-33.7V12.4
	h40.8c2.9,0.1,5.3,1.2,7.5,3.5c2.1,2.1,3.1,4.7,3.1,7.7v4.5h4.1V28.4L1492.4,28.4z M1677.8,142.3c-2.4,2.4-5.2,3.6-8.5,3.6h-3.6v3.7
	h46.5v-3.7h-3.6c-3.3,0-6.1-1.2-8.5-3.6c-2.4-2.4-3.6-5.2-3.6-8.5V20.1c0.1-3.3,1.3-6.1,3.7-8.4c2.4-2.3,5.2-3.5,8.5-3.5h3.6V4.5
	h-46.5v3.7h3.6c3.3,0,6.1,1.1,8.5,3.5c2.4,2.3,3.6,5.1,3.7,8.4v113.6C1681.4,137.1,1680.2,139.9,1677.8,142.3L1677.8,142.3z
	 M1843.3,2.8c-4.4,1.1-9.9,1.5-16.5,1.5h-69.2c-4.1,0-8.8-0.4-13.7-1.2c-5.1-0.8-8.5-1.6-10.4-2.4l-1.2-0.5v28l3.9-0.4v-4.1
	c0-3.1,1.1-5.7,3.2-7.9c2.1-2.3,4.7-3.3,7.6-3.5h38v121.9c-0.1,3.2-1.3,5.9-3.7,8.3c-2.4,2.3-5.2,3.5-8.5,3.5h-3.6v3.7h46.5v-3.7
	h-3.6c-3.3,0-6.1-1.1-8.5-3.5c-2.4-2.3-3.6-5.1-3.7-8.4V12.3h38c2.9,0.1,5.5,1.3,7.6,3.5c2.1,2.1,3.2,4.8,3.2,7.9v4.3l3.9,0.4V0.1
	l-1.2,0.5C1850.3,1.2,1847.7,1.9,1843.3,2.8L1843.3,2.8z M1950.6,145.7h-2.7v3.7h47.7v-3.7h-2.5c-3.3,0-6.7-1.1-9.7-3.1
	c-3.1-2.1-5.6-5.2-7.5-9.2L1921.1,2.3l-0.3-0.5h-3.3v0.9c0,2.8-2.5,9.9-7.5,20.8l-46.3,110c-2,4.1-4.5,7.2-7.7,9.3s-6.3,3.1-9.6,3.1
	h-2.7v3.7h42.9v-3.7h-2.7c-2.5,0-4.5-0.8-5.7-2.4c-1.3-1.7-2-3.2-2-4.5c0-1.5,0.3-3.1,0.8-4.5l13.5-34.4h54l12.9,34.1
	c0.5,1.6,0.8,3.1,0.8,4.7c0,1.5-0.7,3.1-2,4.7C1955.1,144.9,1953.3,145.7,1950.6,145.7L1950.6,145.7z M1893.8,92l24.5-62.4
	l23.3,62.4H1893.8z M2070.3,9.6c13.2,0,24.5,3.2,33.3,9.3s14.8,15.2,17.7,26.7l0.1,0.7h3.5l-4.3-30.3l-0.4-0.3
	c-14.4-9.3-31.3-14-50.3-14c-22,0-40,7.1-53.7,20.8c-13.7,13.9-20.7,32.1-20.7,54.5c0,22.4,6.9,40.7,20.7,54.4
	c13.7,13.7,31.7,20.8,53.7,20.9c9.7,0,18.9-1.5,27.2-4.3s15.1-6.1,20-9.9c4.9-3.7,9.3-8,12.8-12.7l0.1-0.3V91.2
	c-0.1-2.8,0.5-4.8,2.1-6.1c1.6-1.5,4-2.1,7.2-2.1h4v-3.7h-41.9v3.7h4.1c3.1,0,5.5,0.7,7.1,2.1c1.6,1.3,2.4,3.5,2.4,6.1v35.9
	c-5.9,5.3-12.7,9.6-20.4,12.7c-7.9,3.1-16.3,4.7-24.9,4.7c-16.9-0.1-30.9-6.4-41.3-18.7c-10.5-12.3-15.9-28.7-15.9-48.8
	s5.3-36.7,15.9-48.9C2039.4,15.9,2053.4,9.6,2070.3,9.6L2070.3,9.6z M2241.7,28.4v-28l-1.2,0.4c-2,0.8-5.5,1.6-10.4,2.4
	c-4.9,0.8-9.5,1.2-13.6,1.2h-60.9l0.4,3.7h3.2c3.2,0,5.9,1.1,8.1,3.2s3.6,4.7,4,7.6v114.5c-0.1,3.3-1.3,6.1-3.7,8.5
	c-2.4,2.4-5.2,3.6-8.5,3.6h-3.6v3.7h86.4l12.1-33.7l0.4-1.2h-3.9l-0.3,0.5c-3.5,8.7-7.9,15.3-13.1,19.7c-5.1,4.4-12.7,6.5-22.5,6.5
	h-28.3V81.7h33.9c2.5,0.1,4.5,1.1,6.3,2.8s2.5,3.9,2.5,6.4v4h3.9V60.8h-3.9v3.7c0,2.7-0.8,4.8-2.7,6.5c-1.7,1.7-3.9,2.7-6.3,2.8
	h-33.7V12.4h40.8c2.9,0.1,5.3,1.2,7.5,3.5c2.1,2.1,3.1,4.7,3.1,7.7v4.5h4L2241.7,28.4L2241.7,28.4z"/>
</svg>
