<?xml version="1.0" encoding="UTF-8"?>
<svg enable-background="new 0 0 2254.3 152.5" version="1.1" viewBox="0 0 2254.3 152.5" xml:space="preserve" xmlns="http://www.w3.org/2000/svg">
<style type="text/css">
	.logo-svg{fill:#0F1B42;}
</style>
<path class="logo-svg" d="m46.4 145.7h-3.6c-3.3 0-6.1-1.2-8.5-3.6s-3.6-5.2-3.6-8.5v-113.6c0.1-3.3 1.3-6.1 3.7-8.4s5.2-3.5 8.5-3.5h3.6v-3.7h-46.5v3.7h3.6c3.3 0 6.1 1.1 8.5 3.5s3.6 5.1 3.7 8.4v113.6c-0.1 3.3-1.3 6.1-3.7 8.5s-5.2 3.6-8.5 3.6h-3.6v3.7h46.4v-3.7zm38-3.3c-2.3 2.3-5.1 3.3-8.1 3.3h-4.8v3.7h43.9v-3.7h-4.8c-2 0-4-0.5-5.7-1.6-3.9-2.1-5.7-5.5-5.9-9.9v-99.7l110 117.5 0.3 0.3h3.2l-0.5-4.7c-0.9-6.9-1.5-14.5-1.5-22.4v-105.6c0.1-3.2 1.3-5.9 3.6-8.1s4.9-3.3 8.1-3.3h4.5v-3.8h-43.9v3.7h4.8c3.2 0 5.9 1.1 8.1 3.3s3.5 4.9 3.6 8.3v99.3l-110-117.4-0.3-0.3h-3.5l0.5 4.3c0.9 6.5 1.5 14 1.5 22.1v106.3c0.4 3.5-0.8 6.1-3.1 8.4zm198.7-134h2.7v-3.7h-47.8v3.7h2.5c3.2 0 6.5 1.1 9.6 3.1 3.2 2 5.7 5.2 7.6 9.3l57.5 131.2 0.3 0.5h3.3v-0.9c0-2.8 2.5-9.9 7.5-20.7l49.3-110.3c1.2-2.7 2.8-5.1 4.9-6.9 3.6-3.5 7.7-5.3 12.1-5.3h2.7v-3.7h-42.9v3.7h2.7c2.7 0 4.5 0.8 5.7 2.4 1.3 1.7 2 3.2 2 4.5 0 1.5-0.3 2.9-0.8 4.4l-43.7 105.2-42-105.2c-0.7-1.5-0.9-2.8-0.9-3.7 0-1.1 0.1-1.9 0.4-2.5 1.1-3.5 3.5-5.1 7.3-5.1zm212 20v-28l-1.2 0.4c-2 0.8-5.5 1.6-10.4 2.4s-9.5 1.2-13.6 1.2h-60.9l0.4 3.7h3.2c3.2 0 5.9 1.1 8.1 3.2s3.6 4.7 4 7.6v114.5c-0.1 3.3-1.3 6.1-3.7 8.5s-5.2 3.6-8.5 3.6h-3.3v3.7h86.4l12.1-33.7 0.4-1.2h-3.9l-0.3 0.5c-3.5 8.7-7.9 15.3-13.1 19.7-5.1 4.4-12.7 6.5-22.5 6.5h-28.4v-59.3h33.9c2.5 0.1 4.5 1.1 6.3 2.8 1.7 1.7 2.5 3.9 2.5 6.4v4h3.9v-34.1h-3.9v3.7c0 2.7-0.8 4.8-2.7 6.5-1.7 1.7-3.9 2.7-6.3 2.8h-33.7v-61.4h40.8c2.9 0.1 5.3 1.2 7.5 3.5 2.1 2.1 3.1 4.7 3.1 7.7v4.5h3.9l-0.1 0.3zm43.8 82.5h-3.5l-0.1 0.7c-2.1 6.3-3.1 12.1-3.1 17.6 0 5.6 0.3 9.2 0.7 11.2v0.3l0.1 0.1c3.7 3.9 9.2 6.8 16 8.7s13.3 2.8 19.3 2.8c11.7 0 21.3-3.6 28.4-10.8s10.7-16.4 10.7-27.5-3.6-20-10.5-26.4l-40.3-37.2c-5.2-4.8-7.9-10.7-7.9-17.3s2.3-12.3 6.8-16.8c4.5-4.4 10.3-6.7 16.9-6.7 6.7 0 12.3 1.9 16.5 5.5 4.3 3.7 6.4 8.5 6.4 14.7v0.9h3.6v-27h-8.7c-6.5-1.3-12.5-2.1-17.7-2.1-11.2 0-20.3 3.6-26.9 10.7-6.7 7.1-10 15.6-10 25.5s3.9 18.4 11.3 25.5l39.3 36.4c5.1 4.7 7.7 10.9 7.7 18.5s-2.7 13.9-8 18.9c-5.3 5.1-12.3 7.6-20.5 7.6-8 0-14.5-2.7-19.5-8-4.9-5.3-7.3-12.1-7.3-20.1 0-1.5 0.1-2.9 0.1-4.4l0.2-1.3zm137.1 31.4c-2.4 2.3-5.2 3.5-8.5 3.5h-3.6v3.7h46.5v-3.7h-3.6c-3.3 0-6.1-1.1-8.5-3.5-2.4-2.3-3.6-5.1-3.7-8.4v-121.8h38c2.9 0.1 5.5 1.3 7.6 3.5s3.2 4.8 3.2 7.9v4.3l3.9 0.4v-28.2l-1.3 0.5c-0.9 0.4-3.6 1.1-7.9 2.1-4.4 1.1-9.9 1.5-16.5 1.5h-69.2c-4.1 0-8.8-0.4-13.7-1.2-5.1-0.8-8.5-1.6-10.4-2.4l-1.3-0.5v28l3.9-0.4v-4c0-3.1 1.1-5.7 3.2-7.9 2.1-2.3 4.7-3.3 7.6-3.5h38v121.9c-0.1 3.2-1.3 5.9-3.7 8.2zm158.5 10.1c22 0 40.1-7.1 53.9-20.8 13.7-13.9 20.7-32.1 20.7-54.5s-6.9-40.7-20.7-54.5c-13.8-13.9-31.9-20.9-53.9-20.9s-40 7.1-53.7 20.8c-13.7 13.9-20.7 32.1-20.7 54.5s6.9 40.7 20.7 54.5c13.6 14 31.7 20.9 53.7 20.9zm-41.2-124.3c10.4-12.3 24.3-18.5 41.2-18.5 11.2 0 21.3 2.8 29.9 8.4 8.7 5.6 15.3 13.5 20 23.7 4.7 10.1 7.1 22.1 7.1 35.5 0 20.1-5.3 36.7-15.6 48.9-10.4 12.3-24.3 18.5-41.3 18.5s-30.9-6.3-41.3-18.5c-10.4-12.3-15.6-28.8-15.6-48.9s5.2-36.8 15.6-49.1zm142.5 114.2c-2.4 2.3-5.2 3.5-8.5 3.5h-3.6v3.7h46.7l-0.4-3.7h-3.2c-3.5 0-6.3-1.2-8.7-3.6s-3.5-5.2-3.5-8.5v-121.2h12.3c4.8 0 8.9 0.1 12.3 0.1 7.3 0.4 13.2 3.3 17.6 8.7 4.4 5.5 6.7 12.7 6.9 21.6v4.7c0 2.3-0.4 4.8-1.2 7.5-4.3 13.3-14.7 20.3-31.1 20.7-5.1 0.3-8.5 0.3-10.7 0l-0.9-0.1v3.9h0.9c4.1 0 8.3 2.3 12.4 6.7 1.5 1.6 2.9 3.3 4.3 4.9 1.3 1.7 6.3 8.7 14.5 20.5 8.1 11.7 15.5 22 17.5 24.3 1.9 2.1 4 4.3 6.7 6.7 2.5 2.3 6.5 4.5 11.6 6.7s10.8 3.2 16.7 3.2h12.1v-3.7h-0.9c-4.4 0-8.5-0.9-12.3-2.8-1.7-0.8-3.5-1.9-5.2-3.2s-3.3-2.8-4.8-4.1c-1.5-1.5-4-4.1-7.5-7.9-3.3-3.6-13.1-16.8-25.1-34-2.1-2.9-4.7-6-7.6-8.8-1.9-1.7-3.5-3.2-4.9-4.3 8.7-0.8 16.1-4.8 22.4-12.1 6.8-8.1 10.4-17.9 10.4-29.1s-3.7-20.4-10.9-27.5-17.3-10.7-29.9-10.7h-56.1v3.7h3.6c3.3 0 6.1 1.2 8.5 3.5 2.4 2.4 3.6 5.2 3.7 8.5v113.6c-0.5 3.5-1.7 6.3-4.1 8.6zm597.9 0c-2.4 2.3-5.2 3.5-8.5 3.5h-3.6v3.7h46.7l-0.4-3.7h-3.2c-3.5 0-6.3-1.2-8.7-3.6s-3.5-5.2-3.5-8.5v-121.2h12.3c4.8 0 8.9 0.1 12.3 0.1 7.3 0.4 13.2 3.3 17.6 8.7 4.4 5.5 6.7 12.7 6.9 21.6v4.7c0 2.3-0.4 4.8-1.2 7.5-4.3 13.3-14.7 20.3-31.1 20.7-5.1 0.3-8.5 0.3-10.7 0l-0.9-0.1v3.9h0.9c4.1 0 8.3 2.3 12.4 6.7 1.5 1.6 2.9 3.3 4.3 4.9 1.3 1.7 6.3 8.7 14.5 20.5 8.1 11.7 15.5 22 17.5 24.3 1.9 2.1 4 4.3 6.7 6.7 2.5 2.3 6.5 4.5 11.6 6.7s10.8 3.2 16.7 3.2h12.1v-3.7h-0.9c-4.4 0-8.5-0.9-12.3-2.8-1.7-0.8-3.5-1.9-5.2-3.2s-3.3-2.8-4.8-4.1c-1.5-1.5-4-4.1-7.5-7.9-3.3-3.6-13.1-16.8-25.1-34-2.1-2.9-4.7-6-7.6-8.8-1.9-1.7-3.5-3.2-4.9-4.3 8.7-0.8 16.1-4.8 22.4-12.1 6.8-8.1 10.4-17.9 10.4-29.1s-3.7-20.4-10.9-27.5-17.3-10.5-29.9-10.5h-56.1v3.7h3.6c3.3 0 6.1 1.2 8.5 3.5 2.4 2.4 3.6 5.2 3.7 8.5v113.6c-0.5 3.3-1.7 6.1-4.1 8.4zm-463.6-31.4h-3.5l-0.1 0.7c-2.1 6.3-3.1 12.1-3.1 17.6 0 5.6 0.3 9.2 0.7 11.2v0.3l0.1 0.1c3.7 3.9 9.2 6.8 16 8.7s13.3 2.8 19.3 2.8c11.7 0 21.3-3.6 28.4-10.8s10.7-16.4 10.7-27.5-3.6-20-10.5-26.4l-40.3-37.2c-5.2-4.8-7.9-10.7-7.9-17.3s2.3-12.3 6.8-16.8c4.5-4.4 10.3-6.7 16.9-6.7 6.7 0 12.3 1.9 16.5 5.5 4.3 3.7 6.4 8.5 6.4 14.7v0.9h3.6v-27h-8.7c-6.5-1.3-12.5-2.1-17.7-2.1-11.2 0-20.3 3.6-26.9 10.7-6.7 7.1-10 15.6-10 25.5s3.9 18.4 11.3 25.5l39.3 36.4c5.1 4.7 7.7 10.9 7.7 18.5s-2.7 13.9-8 18.9c-5.3 5.1-12.3 7.6-20.5 7.6-8 0-14.5-2.7-19.5-8-4.9-5.3-7.3-12.1-7.3-20.1 0-1.5 0.1-2.9 0.1-4.4v-1.3h0.2zm202.5 31.4c-2.4-2.4-3.6-5.2-3.6-8.5v-51.9h82v52.1c-0.1 3.3-1.3 6.1-3.7 8.4s-5.2 3.5-8.5 3.5h-3.6v3.7h46.5v-3.7h-3.6c-3.3 0-6.1-1.2-8.5-3.6s-3.6-5.2-3.7-8.5v-113.4c0.1-3.3 1.3-6.1 3.7-8.5s5.2-3.5 8.5-3.5h3.6v-3.7h-46.5v3.7h3.6c2.1 0 4.3 0.5 6.1 1.5 4 2.3 6 5.7 6.1 10.3v53.7h-82v-53.8c0.1-3.3 1.3-6.1 3.7-8.4s5.2-3.5 8.5-3.5h3.6v-3.7h-46.5v3.7h3.6c3.3 0 6.1 1.1 8.5 3.5 2.4 2.3 3.6 5.1 3.7 8.4v113.6c-0.1 3.3-1.3 6.1-3.7 8.5s-5.2 3.6-8.5 3.6h-3.6v3.7h46.5v-3.7h-3.6c-3.4-0.1-6.2-1.3-8.6-3.5zm219.8-113.9v-28l-1.2 0.4c-2 0.8-5.5 1.6-10.4 2.4s-9.5 1.2-13.6 1.2h-60.9l0.4 3.7h3.2c3.2 0 5.9 1.1 8.1 3.2 2.3 2.1 3.6 4.7 4 7.6v114.5c-0.1 3.3-1.3 6.1-3.7 8.5s-5.2 3.6-8.5 3.6h-3.6v3.7h86.4l12.1-33.7 0.4-1.2h-3.9l-0.3 0.5c-3.5 8.7-7.9 15.3-13.1 19.7-5.1 4.4-12.7 6.5-22.5 6.5h-28.4v-59.3h33.9c2.5 0.1 4.5 1.1 6.3 2.8 1.7 1.7 2.5 3.9 2.5 6.4v4h3.9v-34.1h-3.9v3.7c0 2.7-0.8 4.8-2.7 6.5-1.7 1.7-3.9 2.7-6.3 2.8h-33.7v-61.4h40.8c2.9 0.1 5.3 1.2 7.5 3.5 2.1 2.1 3.1 4.7 3.1 7.7v4.5h4.1v0.3zm185.4 113.9c-2.4 2.4-5.2 3.6-8.5 3.6h-3.6v3.7h46.5v-3.7h-3.6c-3.3 0-6.1-1.2-8.5-3.6s-3.6-5.2-3.6-8.5v-113.7c0.1-3.3 1.3-6.1 3.7-8.4s5.2-3.5 8.5-3.5h3.6v-3.7h-46.5v3.7h3.6c3.3 0 6.1 1.1 8.5 3.5 2.4 2.3 3.6 5.1 3.7 8.4v113.6c-0.2 3.4-1.4 6.2-3.8 8.6zm165.5-139.5c-4.4 1.1-9.9 1.5-16.5 1.5h-69.2c-4.1 0-8.8-0.4-13.7-1.2-5.1-0.8-8.5-1.6-10.4-2.4l-1.2-0.5v28l3.9-0.4v-4.1c0-3.1 1.1-5.7 3.2-7.9 2.1-2.3 4.7-3.3 7.6-3.5h38v121.9c-0.1 3.2-1.3 5.9-3.7 8.3-2.4 2.3-5.2 3.5-8.5 3.5h-3.6v3.7h46.5v-3.7h-3.6c-3.3 0-6.1-1.1-8.5-3.5-2.4-2.3-3.6-5.1-3.7-8.4v-121.8h38c2.9 0.1 5.5 1.3 7.6 3.5 2.1 2.1 3.2 4.8 3.2 7.9v4.3l3.9 0.4v-28.3l-1.2 0.5c-1.1 0.6-3.7 1.3-8.1 2.2zm107.3 142.9h-2.7v3.7h47.7v-3.7h-2.5c-3.3 0-6.7-1.1-9.7-3.1-3.1-2.1-5.6-5.2-7.5-9.2l-54.8-131.1-0.3-0.5h-3.3v0.9c0 2.8-2.5 9.9-7.5 20.8l-46.3 110c-2 4.1-4.5 7.2-7.7 9.3s-6.3 3.1-9.6 3.1h-2.7v3.7h42.9v-3.7h-2.7c-2.5 0-4.5-0.8-5.7-2.4-1.3-1.7-2-3.2-2-4.5 0-1.5 0.3-3.1 0.8-4.5l13.5-34.4h54l12.9 34.1c0.5 1.6 0.8 3.1 0.8 4.7 0 1.5-0.7 3.1-2 4.7-1.1 1.3-2.9 2.1-5.6 2.1zm-56.8-53.7l24.5-62.4 23.3 62.4h-47.8zm176.5-82.4c13.2 0 24.5 3.2 33.3 9.3s14.8 15.2 17.7 26.7l0.1 0.7h3.5l-4.3-30.3-0.4-0.3c-14.4-9.3-31.3-14-50.3-14-22 0-40 7.1-53.7 20.8-13.7 13.9-20.7 32.1-20.7 54.5s6.9 40.7 20.7 54.4c13.7 13.7 31.7 20.8 53.7 20.9 9.7 0 18.9-1.5 27.2-4.3s15.1-6.1 20-9.9c4.9-3.7 9.3-8 12.8-12.7l0.1-0.3v-33.9c-0.1-2.8 0.5-4.8 2.1-6.1 1.6-1.5 4-2.1 7.2-2.1h4v-3.7h-41.9v3.7h4.1c3.1 0 5.5 0.7 7.1 2.1 1.6 1.3 2.4 3.5 2.4 6.1v35.9c-5.9 5.3-12.7 9.6-20.4 12.7-7.9 3.1-16.3 4.7-24.9 4.7-16.9-0.1-30.9-6.4-41.3-18.7-10.5-12.3-15.9-28.7-15.9-48.8s5.3-36.7 15.9-48.9c11-12.2 25-18.5 41.9-18.5zm171.4 18.8v-28l-1.2 0.4c-2 0.8-5.5 1.6-10.4 2.4s-9.5 1.2-13.6 1.2h-60.9l0.4 3.7h3.2c3.2 0 5.9 1.1 8.1 3.2s3.6 4.7 4 7.6v114.5c-0.1 3.3-1.3 6.1-3.7 8.5s-5.2 3.6-8.5 3.6h-3.6v3.7h86.4l12.1-33.7 0.4-1.2h-3.9l-0.3 0.5c-3.5 8.7-7.9 15.3-13.1 19.7-5.1 4.4-12.7 6.5-22.5 6.5h-28.3v-59.3h33.9c2.5 0.1 4.5 1.1 6.3 2.8s2.5 3.9 2.5 6.4v4h3.9v-34.1h-3.9v3.7c0 2.7-0.8 4.8-2.7 6.5-1.7 1.7-3.9 2.7-6.3 2.8h-33.7v-61.4h40.8c2.9 0.1 5.3 1.2 7.5 3.5 2.1 2.1 3.1 4.7 3.1 7.7v4.5h4v0.3z"/>
</svg>
